<?xml version="1.0"?>
<svg xmlns="http://www.w3.org/2000/svg" xmlns:xlink="http://www.w3.org/1999/xlink" xmlns:svgjs="http://svgjs.com/svgjs" version="1.1" width="512" height="512" x="0" y="0" viewBox="0 0 60 52" style="enable-background:new 0 0 512 512" xml:space="preserve" class=""><g><g xmlns="http://www.w3.org/2000/svg" id="Page-1" fill="none" fill-rule="evenodd"><g id="030---Dislike" fill="rgb(0,0,0)" fill-rule="nonzero" transform="translate(-1)"><path id="Shape" d="m26.6 49.248 2.479 2.058c1.1150598.9273268 2.7329402.9273268 3.848 0l2.473-2.058c15.428-12.793 25.618-21.248 25.618-32.519 0-9.537-6.667-16.729-15.509-16.729-5.6134578.01896611-10.928693 2.52949794-14.509 6.853-3.580307-4.32350206-8.8955422-6.83403389-14.509-6.853-8.842 0-15.509 7.192-15.509 16.729 0 11.271 10.19 19.726 25.618 32.519zm-10.109-47.248c5.4104156.07707129 10.4714386 2.68736117 13.671 7.051.1857771.28136914.5008349.45017696.838.449.3381237.00007263.6533845-.17072498.838-.454 3.1912822-4.37266237 8.2579954-6.98403396 13.671-7.046 7.7 0 13.509 6.332 13.509 14.729 0 10.334-9.9 18.547-24.891 30.979l-2.482 2.061c-.3737051.3111709-.9162949.3111709-1.29 0l-2.482-2.061c-14.988-12.432-24.891-20.645-24.891-30.979 0-8.397 5.808-14.729 13.509-14.729z" fill="#ffffff" data-original="#000000" style="" class=""/><path id="Shape" d="m14.729 6.16c.064415-.00013152.1286829-.00615663.192-.018.5173072-.09702754 1.0426783-.14457547 1.569-.142.5522847 0 1-.44771525 1-1s-.4477153-1-1-1c-.6541725-.00260535-1.3071108.0569962-1.95.178-.506278.09737906-.855544.56369773-.8066033 1.07692761s.4800453.9051338.9956033.90507239z" fill="#ffffff" data-original="#000000" style="" class=""/><path id="Shape" d="m10.157 6c-3.36610425 2.52344182-5.29665315 6.5247533-5.177 10.73.00000001.5522847.44771526 1 1 1s.99999999-.4477153 1-1c-.12007388-3.5517138 1.490464-6.94092677 4.32-9.091.4260173-.32486332.5203269-.92775449.2138693-1.36719805-.3064576-.43944357-.9047941-.55929964-1.3568693-.27180195z" fill="#ffffff" data-original="#000000" style="" class=""/><path id="Shape" d="m19.879 34.293 2.828 2.828c.7809997.7807639 2.0470003.7807639 2.828 0l5.465-5.465 5.465 5.465c.7809997.7807639 2.0470003.7807639 2.828 0l2.828-2.828c.7807639-.7809997.7807639-2.0470003 0-2.828l-5.465-5.465 5.465-5.465c.7807639-.7809997.7807639-2.0470003 0-2.828l-2.828-2.828c-.7809997-.7807639-2.0470003-.7807639-2.828 0l-5.465 5.465-5.465-5.465c-.7809997-.7807639-2.0470003-.7807639-2.828 0l-2.828 2.828c-.7807639.7809997-.7807639 2.0470003 0 2.828l5.465 5.465-5.465 5.465c-.7807639.7809997-.7807639 2.0470003 0 2.828zm7.586-7.586c.3903819-.3904999.3903819-1.0235001 0-1.414l-6.172-6.172 2.828-2.828 6.172 6.172c.3904999.3903819 1.0235001.3903819 1.414 0l6.172-6.172 2.828 2.828-6.172 6.172c-.3903819.3904999-.3903819 1.0235001 0 1.414l6.172 6.172-2.828 2.828-6.172-6.172c-.3904999-.3903819-1.0235001-.3903819-1.414 0l-6.172 6.172-2.828-2.828z" fill="#ffffff" data-original="#000000" style="" class=""/></g></g></g></svg>
